<svg width="24" height="24" viewBox="0 0 300 300" fill="none" xmlns="http://www.w3.org/2000/svg">
<path d="M285.539 109.945C292.662 122.287 291.147 137.796 281.768 148.524L188.993 254.651C182.671 261.884 173.533 266.033 163.928 266.033L82.138 266.033C70.242 266.033 59.2495 259.685 53.3015 249.379L14.461 182.086C8.51299 171.781 8.51299 159.084 14.461 148.779L55.3558 77.9271C60.1585 69.6061 68.3196 63.7651 77.7432 61.9042L216.013 34.5994C229.99 31.8392 244.175 38.2802 251.298 50.6223L285.539 109.945Z" fill="#84cc16" fill-opacity="0.3"/>
<path fill-rule="evenodd" clip-rule="evenodd" d="M198.915 86.2748C202.48 86.3816 206.295 87.4311 209.229 90.4108C213.737 94.9382 213.834 101.324 212.803 106.572C211.727 112.087 209.069 118.331 205.423 124.806C203.494 128.266 201.227 131.895 198.666 135.631C201.489 146.223 200.675 157.456 196.355 167.53C192.034 177.604 184.456 185.935 174.838 191.186C163.926 197.092 151.194 198.679 139.166 195.634C135.465 198.211 131.64 200.606 127.706 202.812C121.188 206.432 114.911 209.055 109.381 210.105C104.099 211.11 97.7067 210.968 93.1989 206.458C90.2292 203.479 89.1534 199.618 89.0378 195.989C88.9311 192.396 89.7224 188.545 90.9939 184.693C93.4034 177.489 97.9468 169.101 103.993 160.322C101.892 152.083 101.973 143.439 104.23 135.242C106.486 127.044 110.839 119.577 116.86 113.575C122.881 107.574 130.361 103.246 138.563 101.018C146.766 98.7902 155.407 98.7395 163.635 100.871C172.393 95.0716 180.75 90.5709 187.908 88.1961C191.642 86.9508 195.394 86.177 198.915 86.2748ZM178.323 107.417C179.141 107.951 179.941 108.52 180.724 109.107L180.75 109.125L184.76 112.185C178.003 123.614 167.2 137.347 153.73 150.992C140.482 164.396 126.985 175.078 115.658 181.811L112.359 177.72C111.679 176.821 111.029 175.898 110.412 174.954C107.229 180.255 104.962 184.987 103.655 188.918C102.659 191.916 102.321 194.122 102.375 195.58C102.401 196.47 102.552 196.861 102.624 197.003C102.828 197.11 103.886 197.564 106.891 197.003C110.466 196.318 115.329 194.424 121.233 191.142C124.469 189.345 127.919 187.193 131.52 184.711C141.194 177.836 151.543 169.012 161.625 158.801C171.717 148.59 180.501 138.192 187.374 128.497C189.846 124.922 191.998 121.497 193.794 118.286C197.101 112.389 199.022 107.551 199.724 104.002C200.302 101.04 199.866 99.9992 199.76 99.8213C199.361 99.6751 198.939 99.6057 198.515 99.6167C197.137 99.5722 195.03 99.8835 192.113 100.862C188.237 102.143 183.578 104.358 178.332 107.417H178.323Z" fill="#84cc16"/>
</svg>
